PathFileType	4	(X/Y/Z)	../Python\running\Running07\task.trc
DataRate	CameraRate	NumFrames	NumMarkers	Units	OrigDataRate	OrigDataStartFrame	OrigNumFrames
200.000000	200.000000	4	30	mm	200.000000	110	177
Frame#	Time	C7			RBAK			CLAV			STRN			RASI			LASI			PE01			RTH1			RTH2			RTH3			RTB2			RHEE			RD5M			RTOE			LTH2			LTH3			LTB2			LTB3			LHEE			LTOE			LD5M			LPSI			RPSI			RTB1			RTB3			T10			PE03			PE02			LTH1			LTB1			
		X1	Y1	Z1	X2	Y2	Z2	X3	Y3	Z3	X4	Y4	Z4	X5	Y5	Z5	X6	Y6	Z6	X7	Y7	Z7	X8	Y8	Z8	X9	Y9	Z9	X10	Y10	Z10	X11	Y11	Z11	X12	Y12	Z12	X13	Y13	Z13	X14	Y14	Z14	X15	Y15	Z15	X16	Y16	Z16	X17	Y17	Z17	X18	Y18	Z18	X19	Y19	Z19	X20	Y20	Z20	X21	Y21	Z21	X22	Y22	Z22	X23	Y23	Z23	X24	Y24	Z24	X25	Y25	Z25	X26	Y26	Z26	X27	Y27	Z27	X28	Y28	Z28	X29	Y29	Z29	X30	Y30	Z30	

111	0.55	244.2023010253907	1312.507080078125	176.2881469726563	169.9981384277344	1201.736450195313	250.0004882812501	359.1363830566407	1212.791015625	196.9129028320314	400.6428833007815	1020.145446777344	181.7032775878907	327.3273010253907	845.2247924804692	288.5058593750001	347.4675598144532	810.5317993164067	65.00577545166018	159.2628784179688	923.250610351563	153.6325988769532	318.2679138183595	560.1359863281252	324.8588256835939	358.7407226562501	492.506042480469	309.8853759765626	368.2629699707032	552.2518310546877	324.4526977539064	323.4278564453126	239.5320281982423	282.9123535156251	221.5325927734376	32.56259536743165	176.3316345214844	368.9432373046876	16.83391189575196	251.9841918945314	411.7186279296877	29.86898040771486	196.988006591797	223.6469268798829	495.1353454589846	42.84689712524415	297.4313964843751	520.1097412109377	26.71580123901369	13.91074562072755	377.8738403320314	92.43180084228518	50.06104660034183	345.0032653808595	82.39017486572268	-154.2594146728516	368.8518371582032	177.6377716064454	-125.8273086547852	200.2684326171876	129.6037597656251	-145.8892211914063	237.3624267578126	88.67492675781253	151.6096191406251	884.8472290039067	115.0520477294922	143.344223022461	894.8276977539067	201.5105895996095	374.7686767578126	271.5491027832032	277.2829589843751	346.303192138672	199.1437377929689	262.3327941894532	185.6273345947266	1026.10546875	135.2332916259766	134.6978607177735	864.105346679688	132.9126434326172	128.5523681640626	871.6714477539067	182.607162475586	254.2370147705079	545.9819946289065	24.2540912628174	90.47574615478518	391.643249511719	71.33219909667972	
112	0.555	260.4251708984376	1309.696533203125	177.3270874023438	186.7365875244141	1198.08740234375	251.8973083496095	375.6714477539064	1208.746948242188	196.4490814208986	416.7063903808596	1015.527526855469	180.7914581298829	342.217987060547	842.521362304688	289.221893310547	362.7541503906251	806.7868041992192	65.80767059326175	174.5533599853516	920.9926147460942	152.5570373535157	328.8826904296876	556.707702636719	325.0583496093751	368.4927978515626	488.665710449219	309.9615478515626	378.6571044921876	548.318298339844	324.6380615234376	329.4558715820314	237.3444976806642	282.8454589843751	221.2845458984376	32.36948394775392	176.1155548095704	368.5796508789064	17.30513000488282	251.8800659179689	411.568298339844	30.17954826354982	196.9529266357423	246.8354949951173	490.9362487792971	42.65824127197267	319.6622619628907	517.7790527343752	25.97622299194337	42.05316543579103	374.108123779297	89.58091735839847	78.34030914306643	341.1348266601564	80.36566162109378	-127.772819519043	365.3029174804689	173.7308502197266	-95.52498626708987	196.7615051269532	127.7962265014649	-115.6733093261719	233.2540893554689	86.11871337890628	167.1855926513672	881.9448242187505	114.1278152465821	158.5540466308594	893.267211914063	200.7332153320314	381.6282958984376	268.2223510742189	276.5395507812501	351.2337341308595	196.5816040039064	261.6335754394532	201.4835357666017	1023.06396484375	135.4684143066407	150.1239318847657	861.6831054687505	132.0461730957032	143.5636444091797	869.604370117188	181.6368103027344	275.9150695800782	542.443786621094	23.86058425903321	118.7944335937501	387.6519165039065	68.82984161376956	
113	0.5600000000000001	276.6651611328126	1307.151000976563	178.2869110107422	203.5622406005861	1194.8046875	253.8034210205079	392.1749572753909	1205.024658203125	195.8533477783204	432.7215576171877	1011.293884277344	179.7879333496094	357.0508728027345	840.0183715820317	289.9033508300782	377.9884643554689	803.3241577148442	66.62862396240237	189.896957397461	919.1149291992192	151.6032409667969	339.4190979003907	553.712341308594	325.315643310547	378.2027587890626	485.3373107910159	310.1141357421876	388.9757080078127	544.9113769531252	324.7961730957032	335.0799865722657	235.3973236083986	282.7702941894532	221.1460113525392	32.54490280151369	175.9734497070313	368.2659301757814	17.65094184875489	251.7746429443361	411.4193420410159	30.39179420471193	196.9392242431642	270.3418579101564	487.184265136719	42.48620605468751	342.1470031738282	516.0063476562502	25.28234672546388	70.42398071289065	370.2130126953126	86.6467208862305	106.9512786865235	337.2375488281251	78.36280822753909	-101.0813064575196	361.0586242675782	169.5872802734376	-64.62612915039065	192.6568145751954	125.957748413086	-84.91181182861331	228.5095214843751	83.455680847168	182.7486267089844	879.4965209960942	113.2797088623047	173.7109375000001	892.0630493164067	200.0013275146486	388.0415954589846	265.1341857910157	276.004852294922	355.821258544922	194.2861328125001	261.1166381835939	217.2965850830079	1020.340515136719	135.7796783447266	165.5180206298829	859.700805664063	131.2315521240235	158.5486297607422	867.9462280273442	180.7199249267579	297.8157043457032	539.3654785156252	23.5222511291504	147.3210144042969	383.7506103515626	66.33087921142581	
114	0.5650000000000001	292.9203491210939	1304.897338867188	179.1596069335938	220.4873199462892	1191.924560546875	255.7156829833986	408.6471862792971	1201.675537109375	195.1196899414064	448.6911621093752	1007.495910644532	178.6914978027344	371.841033935547	837.7271118164067	290.5572204589845	393.195251464844	800.203002929688	67.4616394042969	205.2921295166017	917.600463867188	150.7915344238282	349.9712219238282	551.1455078125002	325.6479492187501	387.976257324219	482.4971008300784	310.3621826171876	399.3342590332034	542.001647949219	324.948944091797	340.2701416015626	233.6821746826173	282.6921691894532	221.0819549560548	33.02127075195314	175.9124755859376	367.9973144531251	17.87028121948243	251.6806640625001	411.2735900878909	30.5066432952881	196.9400787353517	294.1565856933595	483.938903808594	42.32779693603517	364.8897705078126	514.8199462890627	24.63061523437501	98.97743988037115	366.230926513672	83.68827056884768	135.8414154052735	333.3663330078126	76.40879821777347	-74.19648742675784	356.1050720214845	165.2852478027344	-33.16441726684572	188.0115966796876	124.0393905639649	-53.63982009887698	223.2027893066407	80.67885589599612	198.2970428466798	877.5000610351567	112.5359344482422	188.8300170898438	891.1726074218755	199.3320770263673	393.9770202636721	262.2689514160157	275.6934204101564	360.0276489257814	192.2314453125001	260.7965698242189	233.0756988525392	1017.960876464844	136.1709747314454	180.8852081298829	858.1384277343755	130.4970245361329	173.5238494873047	866.675415039063	179.8864746093751	319.949676513672	536.8007812500002	23.23270225524903	175.9981994628907	380.0054321289064	63.892936706543	
